PathFileType	4	(X/Y/Z)	27_1_31_p1_0-251.trc
DataRate	CameraRate	NumFrames	NumMarkers	Units	OrigDataRate	OrigDataStartFrame	OrigNumFrames
60.0	60.0	7	27	m	60.0	126	252
Frame#	Time	RHip			RKnee			RAnkle			RBigToe			RSmallToe			RHeel			LHip			LKnee			LAnkle			LBigToe			LSmallToe			LHeel			Neck			Head			Nose			RShoulder			RElbow			RWrist			RThumb			RIndex			RPinky			LShoulder			LElbow			LWrist			LThumb			LIndex			LPinky			
		X1	Y1	Z1	X2	Y2	Z2	X3	Y3	Z3	X4	Y4	Z4	X5	Y5	Z5	X6	Y6	Z6	X7	Y7	Z7	X8	Y8	Z8	X9	Y9	Z9	X10	Y10	Z10	X11	Y11	Z11	X12	Y12	Z12	X13	Y13	Z13	X14	Y14	Z14	X15	Y15	Z15	X16	Y16	Z16	X17	Y17	Z17	X18	Y18	Z18	X19	Y19	Z19	X20	Y20	Z20	X21	Y21	Z21	X22	Y22	Z22	X23	Y23	Z23	X24	Y24	Z24	X25	Y25	Z25	X26	Y26	Z26	X27	Y27	Z27	
126	2.1	0.13061579910534207	0.6637433314157112	1.0337174188860343	0.12990706404033675	0.6847473256018667	1.430785414760115	0.1538840948242867	0.8089530229828445	1.845358635764289	0.12313920723783776	0.5793045821685021	1.8334408013998615	0.17194515347475117	0.6002584456700607	1.8281726935504599	0.15240650448164225	0.8977774705335467	1.9064010655365762	-0.0659776981941324	0.667259805988568	1.0463606727837031	-0.04889829443097418	0.7533858904025735	1.4494893763421342	-0.029874755933765307	0.8138931092165865	1.8491731832333365	-0.03619194565637971	0.5938110126478803	1.8267141820303814	-0.0819298061965013	0.6530511123963967	1.8413913345923987	-0.0017814832699664567	0.8529272122329062	1.8871220124690538	0.02408974095248417	0.621440714664396	0.5092337282558511	0.013672367224276085	0.5117871199572187	0.2410773178713771	0.007716360148818864	0.4359512423627428	0.4014280784384268	0.16219399896698333	0.5938322543826758	0.5737694112307538	0.19522184803333242	0.5722844740831394	0.8002658166874081	0.14178044120046843	0.37964113646914555	0.7711863206767182	0.06383597419411427	0.24633945542468552	0.7156123898509649	0.05469481213281882	0.2037673136894391	0.7187371482851188	0.07687171815024792	0.2723551473784587	0.787589284604648	-0.10636311345501326	0.666492621690951	0.5819548236673822	-0.15602652514348864	0.585574188598669	0.7965956100665331	-0.12116865009343405	0.4105320119261122	0.7770228073551785	-0.0718340915259668	0.31257011294599885	0.7307265236855017	-0.08272767961606857	0.24350332543775646	0.7345741756614528	-0.07535261486374788	0.317958488792081	0.7917161841848729
127	2.1166666666666667	0.13041455371946606	0.6639807794013706	1.0381530947751687	0.12988088428706238	0.6846222805555642	1.430748598249923	0.14916689145506273	0.8083826153785482	1.845032586438311	0.12305427705785758	0.5793369412048891	1.8337273598129251	0.1711678117969465	0.6009477947992823	1.8325401198360547	0.1524711803080028	0.8976789611842168	1.9059970273179618	-0.06580394892440342	0.6671263973139714	1.046442259150204	-0.04475593205802058	0.7543359331750433	1.4497067328142463	-0.029847644411436138	0.8140427760585603	1.8492444371571526	-0.03607420378670996	0.5937160591072155	1.826531081343131	-0.0816559190474643	0.6528850779195882	1.8411053839634628	-0.010130617417632786	0.8681115904603848	1.8945528374052947	0.024409080839116075	0.6215628532257395	0.5092026541306446	0.013890529176739313	0.5118801949358437	0.2409759743999723	0.007560116111433434	0.4354378331659925	0.40138316879427016	0.16444111277453677	0.5809694089867109	0.5759073513861613	0.20093285241787204	0.5576771466749961	0.7927374214285338	0.1443703397041839	0.3677289858498629	0.7694152125197372	0.06327929432026048	0.24630636554032825	0.7195933746320784	0.04735626367663023	0.20247149114758511	0.733450525726212	0.0773052107122374	0.2730642092293089	0.7908437361362678	-0.10994431303023444	0.6552796026287906	0.5887519718948119	-0.15588993803450574	0.5855101228482519	0.7969349953749215	-0.1248141394846902	0.40926260793699243	0.7771706573066122	-0.07220003565862562	0.31265250046168147	0.7380554456971271	-0.08326507099219209	0.24340214931768417	0.7355506589987808	-0.08139730854633696	0.3190354923390014	0.7923361323019944
128	2.1333333333333333	0.13493096722542242	0.6657559329121268	1.0387644006711316	0.12919887772799207	0.6850362734363303	1.4350472386979725	0.14915540482693718	0.8082137434168103	1.844969584076439	0.123142974853517	0.5793346408025998	1.8336692218145694	0.1712384459855226	0.6010548849988101	1.832570288250311	0.15254715660465837	0.8978198931987862	1.9060183066672982	-0.06584688694105287	0.6671320263275541	1.0463732609360765	-0.04477857984828824	0.7541992351015159	1.449732205159084	-0.029817538512379133	0.8138710865640363	1.8491640551656217	-0.0360321796961067	0.5938661794455835	1.8264914887232728	-0.08158311244913266	0.6528143741127099	1.8409333851066756	-0.0015729443516097766	0.8536284531112492	1.8873947785366318	0.024756854134785986	0.6214993472598784	0.5091497006203248	0.01876753633528854	0.5232554484467686	0.24382222390226085	0.007672820204984182	0.4359927741403661	0.40144498408445367	0.16451772646306825	0.5812420063317864	0.5760560477592956	0.19381652755729864	0.5598876049606919	0.8013545375113484	0.1378568566103502	0.37057121379422786	0.7708075919549171	0.06462717414243377	0.2571819986534628	0.7252251523062396	0.04991824471919735	0.19374169082193365	0.7285943754384521	0.07307649254010845	0.264199776594202	0.7884503063443913	-0.10986874309170251	0.6550595872163892	0.5886918582792487	-0.1563284545907389	0.5601950095849494	0.792622728938763	-0.1252365252494253	0.3987997220750127	0.7754857754917905	-0.07687232220177548	0.31036723738901767	0.738372738022402	-0.08328924746206355	0.24379675854139599	0.7360507517901723	-0.07968205819050865	0.31720834419620336	0.7979337278921402
129	2.15	0.13614555263149486	0.6676793317975083	1.0428596716597185	0.12987442769580368	0.6846281869432131	1.4307369903784883	0.15657746957989377	0.7915807263159168	1.8366916392607648	0.11860997142605159	0.5664677124842508	1.8265392488371441	0.17127804312440695	0.6007881307941966	1.8322011561121112	0.1540351379431282	0.9000203803336725	1.912197070502314	-0.0661647651492948	0.6677842256044321	1.0425796485350836	-0.044752434690852494	0.7542282599329816	1.4496930433064203	-0.02975876639087972	0.8139494241494136	1.849208218485538	-0.03721861482490396	0.5917143782306843	1.821297336144923	-0.0815638436609428	0.6529360627546238	1.840983173077526	-0.0010657465413461023	0.8553828507399462	1.8882791737898288	0.028024600490689843	0.6086478183766452	0.5081421572633658	0.01894547638617652	0.5231854165610861	0.2437363775937104	0.007620581243384495	0.4352916060841209	0.4013525103551074	0.1645857911561557	0.5811111730819744	0.5761210032283646	0.1998217525003108	0.5731297041900276	0.7996417116881589	0.14828722438229236	0.39180299420157805	0.7807258032998445	0.07314418781410567	0.26905418829869004	0.727466263766735	0.06898034803832045	0.25663782622684994	0.7348950563400289	0.08088099153971415	0.2835124270157567	0.7963321127178699	-0.10950709149260261	0.6547090626027726	0.5851573703369258	-0.15574010047759496	0.5609048703236452	0.7966366592340983	-0.1288026677021453	0.3877021976449483	0.7778250169309778	-0.07344696207829171	0.31944091403451014	0.7400562240989687	-0.07654561843711385	0.24166313822226893	0.735766877872585	-0.07514836754333079	0.3190779180800385	0.7982223212265399
130	2.1666666666666665	0.1366768183298981	0.6674709050932547	1.0383485876189054	0.1298794106698462	0.6846689488790453	1.4307563629659608	0.15174014051986187	0.7907817532147404	1.8364390404545807	0.11864135658849667	0.5661048482072413	1.8262255248446535	0.17603261252445224	0.6006712352787483	1.8319547447167144	0.15402452290214066	0.899981509970086	1.9121686591978784	-0.06527805886911653	0.6698429994188138	1.0476116536966937	-0.044748223383509145	0.7542107918724812	1.4497572283495246	-0.02976221404359141	0.8140342612877809	1.8491734145386212	-0.03725873564244435	0.5915798187303608	1.8212368372833874	-0.08170463916962835	0.652681066786418	1.840907163559691	-0.0010579614120585486	0.855383862723934	1.8882088726694715	0.028010974911451717	0.6084440856458867	0.50815444606614	0.018949044493885132	0.5231529785064739	0.24372619480575874	0.008005838811621648	0.43553382292192894	0.40133213494773845	0.16467027553796373	0.5812427565919641	0.5761558610369354	0.19449033166327015	0.5642925794522101	0.8027125748569729	0.1482843550220745	0.39167491599369064	0.7806685100060103	0.07313266202824184	0.26911449824627165	0.7275285462808617	0.07137981116182714	0.2465554352790314	0.7327448835930713	0.08049268198232139	0.28241288770982464	0.7897734273312191	-0.105847121983653	0.6416641226519179	0.5875144109587501	-0.1556700954445172	0.5603124276534843	0.7967723078826068	-0.12223361575374106	0.34004827116770936	0.7656314189001694	-0.06407249335729008	0.28365850485237704	0.7363216865164384	-0.07032938779179916	0.21912079605160978	0.7314993259042428	-0.06677491484500926	0.2811051551070858	0.7815625796867804
131	2.183333333333333	0.13154075767822201	0.6657900793411199	1.0425251087143617	0.12986312540384928	0.6845852995186921	1.4308090751493303	0.15177142986785475	0.7908009461061063	1.836422690070394	0.11862434764351285	0.5661377907367546	1.82635098573018	0.17602127093950365	0.6007134160431848	1.8320240480967727	0.15402980864104457	0.9000280388846639	1.9122229562760442	-0.06514641691067455	0.6692363906861849	1.0510883880833575	-0.04482297620912702	0.7543387038669672	1.4498148759573917	-0.029756937488987018	0.8140524934149646	1.8491933296060792	-0.0372550250079596	0.5914503658651498	1.8211641353249222	-0.08170387243985967	0.6525277781525535	1.840865673103533	-0.0010289401298260626	0.8553343227589083	1.888167504647222	0.027628387855909993	0.6085569986139241	0.508331555310898	0.019058979308129588	0.5233883262658778	0.24388313215060062	0.008200844679554143	0.4357207509201185	0.3982774446925247	0.16466274518526622	0.5810158491700005	0.5762621107984063	0.19865570871467317	0.5754523606727061	0.8084913040761634	0.14314785283413106	0.382161635961972	0.77584387835384	0.072649044326864	0.26884092498984064	0.7301602951729255	0.0682315096977551	0.257976299729577	0.7272791866789027	0.07974253560484901	0.28203889324403236	0.7856535956068633	-0.1058476699295314	0.641587484153873	0.5874921633123903	-0.15197328549907693	0.5468112456940281	0.7940119802765088	-0.11804676178491535	0.350285404510957	0.770183290562178	-0.0716948954127316	0.2859093559202298	0.7337784687622086	-0.07337804200525762	0.23049825984748717	0.7327729260701571	-0.06520989786540961	0.3042817553540277	0.7854745677891877
132	2.2	0.13499654245087722	0.6660068217372487	1.0387131486904968	0.13617041251063017	0.7001908446295935	1.4404297650078053	0.15202311709218072	0.7892076142429757	1.840355406164693	0.11850789131692428	0.5656206727323639	1.8263917119285389	0.1782256016613364	0.585377073147404	1.824112384959661	0.15428515617980687	0.8983023997994091	1.915994569224356	-0.06631578259357931	0.6685058403259652	1.0425472763056995	-0.043664606422149484	0.755985841498507	1.4556350379339695	-0.029769705431854202	0.8135386602758187	1.8491871356270766	-0.04111787870510815	0.5791175528717067	1.8149878878906476	-0.0814246274239519	0.6536283977408961	1.8414270228301757	-0.0010823995170709604	0.8552078820747829	1.8883275601962153	0.03066968883521738	0.5951561992525127	0.5070382981222684	0.018492112654921934	0.5230581293811981	0.24050001036466415	0.008159565201985778	0.43606613956998486	0.39831964549288884	0.1647980057277486	0.5812748043042169	0.5762117150482806	0.19339931485474346	0.5596296257546611	0.8048805673675477	0.13817341363729224	0.37091748962721943	0.7706420961525988	0.06802330695673718	0.2573065164881452	0.7181899437284174	0.06479520000422888	0.23641045976410682	0.7204145805692588	0.07389329583507628	0.2703870373133031	0.7708192456673031	-0.10582306485801483	0.6415752837497902	0.5875313728073018	-0.15926791893985578	0.5324329863268046	0.7950055770543955	-0.10750241147415089	0.32844462179863115	0.7625638264565033	-0.07366257339012441	0.28812619306286696	0.7276300776410793	-0.07292377025232946	0.23011424972124678	0.7292993899547989	-0.05531493473729456	0.26903773491630717	0.7706107078631094
